PathFileType	4	(X/Y/Z)	Kaydara	
DataRate	CameraRate	NumFrames	NumMarkers	Units	OrigDataRate	OrigDataStartFrame	OrigNumFrames	
60.00	60.00	4	74	mm	60.00	959	121	
Frame#	Time	Z_lasi			Z_rasi			Z_rpsi			Z_lpsi			Z_fneck			Z_bneck			Z_fhead			Z_rhead			Z_lhead			Z_rshld			Z_relbtop			Z_relbext			Z_relblow			Z_rwrext			Z_rwrtop			Z_rwrlow			Z_lshld			Z_lelbext			Z_lelblow			Z_lelbtop			Z_lwrext			Z_lwrtop			Z_lwrlow			Z_rtopleg			Z_ltopleg			Z_rkneefr			Z_rkneebk			Z_rkneeis			Z_lkneefr			Z_lknssbk			Z_lkneeis			Z_rankfr			Z_rankis			Z_rankbk			Z_lankfr			Z_lankbk			Z_lankis			A_lasi			A_rasi			A_rpsi			A_lpsi			A_fneck			A_bneck			A_fhead			A_rhead			A_lhead			A_rshld			A_relbtop			A_relbext			A_relblow			A_rwrext			A_rwrtop			A_rwrlow			A_lshld			A_lelbext			A_lelblow			A_lelbtop			A_lwrext			A_lwrtop			A_lwrlow			A_rtopleg			A_ltopleg			A_rkneefr			A_rkneebk			A_rkneeis			A_lkneefr			A_lknssbk			A_lkneeis			A_rankfr			A_rankis			A_rankbk			A_lankfr			A_lankbk			A_lankis			
		X1	Y1	Z1	X2	Y2	Z2	X3	Y3	Z3	X4	Y4	Z4	X5	Y5	Z5	X6	Y6	Z6	X7	Y7	Z7	X8	Y8	Z8	X9	Y9	Z9	X10	Y10	Z10	X11	Y11	Z11	X12	Y12	Z12	X13	Y13	Z13	X14	Y14	Z14	X15	Y15	Z15	X16	Y16	Z16	X17	Y17	Z17	X18	Y18	Z18	X19	Y19	Z19	X20	Y20	Z20	X21	Y21	Z21	X22	Y22	Z22	X23	Y23	Z23	X24	Y24	Z24	X25	Y25	Z25	X26	Y26	Z26	X27	Y27	Z27	X28	Y28	Z28	X29	Y29	Z29	X30	Y30	Z30	X31	Y31	Z31	X32	Y32	Z32	X33	Y33	Z33	X34	Y34	Z34	X35	Y35	Z35	X36	Y36	Z36	X37	Y37	Z37	X38	Y38	Z38	X39	Y39	Z39	X40	Y40	Z40	X41	Y41	Z41	X42	Y42	Z42	X43	Y43	Z43	X44	Y44	Z44	X45	Y45	Z45	X46	Y46	Z46	X47	Y47	Z47	X48	Y48	Z48	X49	Y49	Z49	X50	Y50	Z50	X51	Y51	Z51	X52	Y52	Z52	X53	Y53	Z53	X54	Y54	Z54	X55	Y55	Z55	X56	Y56	Z56	X57	Y57	Z57	X58	Y58	Z58	X59	Y59	Z59	X60	Y60	Z60	X61	Y61	Z61	X62	Y62	Z62	X63	Y63	Z63	X64	Y64	Z64	X65	Y65	Z65	X66	Y66	Z66	X67	Y67	Z67	X68	Y68	Z68	X69	Y69	Z69	X70	Y70	Z70	X71	Y71	Z71	X72	Y72	Z72	X73	Y73	Z73	X74	Y74	Z74	

31	15.967	-199.39312	1073.02040	693.07510	-254.78893	1073.32970	489.12785	-85.71607	1114.77371	407.99568	-11.66250	1109.41124	643.64967	-282.21863	1413.43048	588.33122	-203.62734	1506.17371	608.56895	-437.37633	1475.13702	543.71117	-331.59710	1605.63660	533.06976	-358.03749	1556.35056	670.55420	-174.34258	1453.92136	393.01277	-54.54501	1213.43628	209.02485	-52.84432	1178.07472	263.98502	-127.08848	1244.00597	246.80706	-287.70214	1115.16563	300.81409	-300.00042	1159.64317	292.54725	-286.28962	1173.42422	330.94193	-218.34459	1421.45157	777.61971	-206.24729	1099.47159	756.46278	-292.01199	1127.04300	764.01749	-247.69600	1107.46140	813.89221	-358.57323	934.04648	618.06732	-381.95251	905.32005	648.03574	-343.01987	886.84982	665.56656	-140.41536	922.54044	368.83732	-99.75204	896.01929	732.57828	-235.44817	423.87978	408.01441	-163.38604	451.63128	359.91936	-172.17272	428.33366	482.86491	-179.55717	449.86595	696.47415	-73.81709	470.93777	677.19139	-174.13727	445.16949	603.05389	-201.25696	181.28223	379.23119	-178.49972	174.08821	441.35441	-125.06298	171.53667	372.40524	-121.37427	163.09109	681.21323	-67.24546	165.85459	621.32988	-146.76784	175.05579	614.72321	-975.82962	1034.19922	473.51563	-965.70587	1039.95811	632.57977	-1125.44510	1033.55370	651.92131	-1100.52223	1039.48036	468.94554	-1058.00583	1375.66330	569.74281	-1190.31578	1421.47369	566.61957	-976.30630	1565.42221	571.25458	-1118.91891	1563.87421	667.51663	-1132.08176	1567.17575	504.68239	-1121.31851	1352.60834	746.27869	-963.20282	1117.95509	739.83841	-999.99695	1069.94003	716.00471	-960.48904	1127.22023	683.99765	-736.73172	1073.25272	664.56009	-736.50589	1085.55092	708.66783	-743.93463	1122.82127	694.95850	-1093.71811	1353.76709	393.05351	-1103.17276	1041.21262	369.67140	-1036.12778	1054.06494	393.84754	-1060.75699	1050.54550	345.43091	-994.98909	831.41708	384.41891	-997.10617	831.23184	343.06454	-954.49051	843.66409	354.09847	-1065.33768	875.79620	732.39922	-1029.27368	889.46838	396.14201	-1024.30862	451.92226	641.02188	-1132.24937	487.09091	685.45692	-1111.38062	486.54163	567.30610	-1008.89336	463.93322	509.36989	-1093.91441	480.33279	413.65685	-1116.37375	479.86347	537.88757	-1098.32985	166.25326	663.36006	-1131.24207	163.25424	597.39361	-1179.81102	154.91272	666.25290	-1066.67519	166.16713	457.04487	-1127.75246	168.41751	421.57085	-1126.10825	173.57691	511.05518 
32	15.983	-202.06886	1073.96935	693.10379	-256.69172	1074.85657	489.17526	-87.04788	1114.84413	408.81649	-14.11814	1108.26691	644.48143	-272.75013	1416.29608	587.77840	-194.15886	1509.03946	608.01613	-430.45189	1490.10910	547.80643	-317.77937	1614.56955	533.76579	-344.14890	1568.45154	672.03926	-169.37429	1453.23578	391.76029	-61.28761	1199.57298	217.19889	-62.23204	1166.24680	273.37574	-132.51590	1235.17082	252.73972	-299.86801	1115.10406	308.79414	-310.63034	1159.33769	297.29336	-297.15872	1175.22682	335.13821	-208.50414	1424.50287	778.21587	-202.58034	1102.10014	763.34892	-287.76417	1131.19949	773.27614	-241.76662	1112.15736	822.04437	-362.16087	934.89906	635.17426	-384.93546	907.74696	666.64543	-345.52658	889.24789	683.60107	-142.28302	922.77054	368.91819	-103.68501	895.94849	732.94563	-236.19831	423.74420	407.61791	-164.27351	451.67088	359.53850	-173.51831	428.47672	482.86865	-180.55492	449.63436	695.64072	-75.00597	471.04881	677.31293	-174.59637	445.09434	602.29034	-201.37886	181.33337	378.93852	-178.60558	174.15854	441.11469	-125.05963	171.71619	372.19070	-122.27589	163.25205	681.32919	-67.40591	165.89996	621.28262	-146.97427	174.92523	614.41616	-975.70488	1034.18282	473.59718	-965.56984	1039.96536	632.61574	-1125.37743	1033.62305	651.98158	-1100.32776	1039.53094	469.14345	-1057.75169	1375.72510	569.83009	-1190.07584	1421.47812	566.69842	-976.17569	1565.50858	571.23478	-1118.82622	1564.02710	667.46086	-1131.92970	1567.13287	504.61212	-1121.09802	1352.63885	746.38344	-963.01270	1117.64130	739.80759	-999.83574	1069.97063	716.09177	-960.33569	1127.22809	684.03000	-736.57326	1073.23875	664.52637	-736.33163	1085.60616	708.66325	-743.75862	1122.81807	694.96727	-1093.39996	1353.84766	393.14480	-1103.12065	1041.23619	369.78050	-1035.97275	1054.10156	393.95222	-1060.58914	1050.60196	345.51537	-994.91310	831.38039	384.55456	-997.04948	831.24207	343.13530	-954.43954	843.64494	354.21955	-1065.31494	875.83168	732.44370	-1029.20486	889.49501	396.23890	-1024.33456	451.94298	641.08131	-1132.27226	487.13333	685.50774	-1111.38695	486.55552	567.35893	-1008.85719	463.92960	509.35509	-1093.90800	480.35225	413.67706	-1116.37527	479.87167	537.88177	-1098.33725	166.26532	663.41248	-1131.21902	163.28875	597.43599	-1179.82422	154.93098	666.28868	-1066.67137	166.17214	457.06711	-1127.73361	168.43243	421.55338	-1126.11748	173.59106	511.06354 
33	16.000	-205.03059	1075.03548	692.62909	-258.26681	1076.17599	489.17801	-88.18192	1114.78264	409.42463	-16.39460	1107.32948	645.25826	-263.94514	1418.55743	587.14928	-185.35387	1511.30066	607.38701	-423.00316	1504.25690	551.43101	-304.38063	1622.35306	533.84834	-330.46486	1579.31320	673.16803	-165.27584	1452.06955	390.67223	-69.18987	1186.70990	225.53610	-72.03004	1155.40344	282.79921	-138.73694	1226.69441	259.07560	-311.76416	1115.01442	317.15326	-321.12682	1158.58231	302.67309	-308.09872	1176.85455	339.36241	-199.34029	1427.06680	778.58566	-198.75629	1104.40765	769.68727	-283.00734	1134.87999	782.28615	-235.52095	1116.53389	829.64455	-364.91318	935.28999	652.42599	-386.86596	909.61960	686.16859	-347.08080	891.02104	702.15652	-144.03915	923.03238	369.04335	-107.11487	895.90591	733.26866	-237.05616	423.59623	407.48989	-165.17704	451.77204	359.31572	-174.71449	428.71128	483.06496	-181.35086	449.32854	694.89807	-75.62930	471.24912	677.15836	-175.01432	444.91875	601.78188	-201.47512	181.37751	378.71159	-178.62715	174.23946	440.96809	-125.12838	171.90456	372.04834	-122.88886	163.22163	681.31866	-67.54393	165.89989	621.19862	-147.16766	174.59082	613.67584	-975.59280	1034.20036	473.69934	-965.52635	1039.96346	632.76127	-1125.34416	1033.66165	652.02065	-1099.80408	1039.55292	469.84570	-1057.62794	1375.77484	570.05421	-1189.90562	1421.53809	566.81744	-975.97267	1565.57495	571.21078	-1118.62007	1564.20090	667.32536	-1131.71997	1567.09778	504.51077	-1120.75363	1352.61810	746.35544	-962.91473	1117.66762	739.85825	-999.70757	1069.98260	716.12526	-960.12360	1127.29919	683.90076	-736.42609	1073.27873	664.45358	-736.17271	1085.64270	708.60954	-743.63708	1122.85126	694.92226	-1093.12386	1353.92273	393.20171	-1102.95654	1041.31989	369.86938	-1035.76584	1054.17305	394.05788	-1060.40916	1050.67924	345.61970	-994.90005	831.38512	384.56432	-996.99730	831.29349	343.20450	-954.32274	843.68843	354.30325	-1065.27977	875.86700	732.48009	-1029.04564	889.49753	396.28315	-1024.38652	451.96297	641.15707	-1132.31560	487.17056	685.58723	-1111.40381	486.61289	567.43660	-1008.84781	463.94562	509.41063	-1093.89473	480.37178	413.70495	-1116.37871	479.87793	537.87922	-1098.35762	166.29566	663.45497	-1131.19072	163.32434	597.47467	-1179.82391	154.96137	666.31927	-1066.66176	166.19732	457.07481	-1127.72247	168.45629	421.55613	-1126.13777	173.60754	511.07090 
34	16.017	-207.35645	1075.68466	692.88101	-259.77879	1077.29332	489.51057	-89.24211	1114.44252	409.94007	-18.74904	1106.43555	646.25183	-255.60331	1420.31235	586.02165	-177.01204	1513.05573	606.25938	-415.63072	1517.36038	554.96601	-291.45382	1629.18686	533.58753	-317.27177	1589.09531	673.91586	-162.03726	1450.69717	389.60186	-77.99847	1175.01160	233.73234	-82.34835	1145.71571	292.11084	-145.78781	1219.04861	265.53211	-323.39485	1114.70596	326.05953	-331.57993	1157.50854	308.90985	-318.01212	1177.19894	344.66927	-190.81690	1429.40948	778.74306	-194.65368	1106.73035	775.38216	-278.09795	1138.38211	790.78262	-228.77407	1120.70129	836.61819	-367.07497	935.42839	670.53787	-387.73869	910.95779	705.93208	-347.38525	892.74895	720.87250	-145.75563	923.20427	369.25068	-110.23511	895.78232	733.73413	-237.76939	423.50197	407.28996	-166.02757	451.88343	359.20361	-174.92294	428.61092	482.50084	-181.90596	449.03381	694.47273	-76.28729	471.33194	677.26601	-175.27637	444.81380	601.32820	-201.63776	181.41438	378.60405	-178.75620	174.28333	440.83252	-125.25716	172.09034	371.96556	-123.27052	163.15954	681.15486	-67.63875	165.87070	621.09764	-147.32547	174.38890	613.31787	-975.50713	1034.21371	473.79005	-965.50995	1039.95422	632.90386	-1125.27573	1033.68515	652.07397	-1099.70802	1039.57176	469.87572	-1057.48306	1375.78278	570.19722	-1189.69460	1421.63116	566.92760	-975.59914	1565.47684	571.05541	-1118.26637	1564.42368	667.16370	-1131.44882	1567.04483	504.37000	-1120.73318	1352.68341	746.55067	-962.82394	1117.66457	739.92729	-999.63272	1069.99474	716.22360	-960.18471	1127.50015	683.12531	-736.33560	1073.34717	664.23828	-736.08513	1085.68405	708.52516	-743.58963	1122.90550	694.79378	-1092.97081	1353.99918	393.30723	-1102.83546	1041.40526	369.99828	-1035.67398	1054.23195	394.17774	-1060.30960	1050.75279	345.70404	-994.85939	831.40976	384.64050	-996.93497	831.35666	343.29056	-954.24255	843.73756	354.46114	-1065.25169	875.89310	732.52800	-1028.89847	889.46846	396.36063	-1024.35043	451.98032	641.22803	-1132.28493	487.18586	685.61462	-1111.37192	486.61942	567.49687	-1008.85727	463.94531	509.46171	-1093.85399	480.37487	413.76091	-1116.35757	479.88712	537.89845	-1098.32985	166.31985	663.51151	-1131.16173	163.37049	597.51953	-1179.79736	154.98828	666.35956	-1066.65833	166.20998	457.10613	-1127.70584	168.48248	421.58516	-1126.17508	173.66657	511.11183 
